<svg width="40" height="40" viewBox="0 0 40 40" fill="none" xmlns="http://www.w3.org/2000/svg">
<rect opacity="0.7" width="40" height="40" rx="20" fill="#F1F2F3"/>
<path fill-rule="evenodd" clip-rule="evenodd" d="M23.0137 15.4245C23.0137 16.7635 24.0767 17.849 25.3881 17.849C26.6995 17.849 27.7626 16.7635 27.7626 15.4245C27.7626 14.0855 26.6995 13 25.3881 13C24.0767 13 23.0137 14.0855 23.0137 15.4245ZM28 20.7266V27H22.8489V22.1248L22.0259 22.5932H20.0234C20.4584 22.3885 20.7603 21.9394 20.7603 21.4183C20.7603 20.9608 20.5276 20.5589 20.1766 20.329H21.621L23.7138 18.8604C24.1689 18.4145 24.7867 18.1404 25.4673 18.1404C26.8205 18.1404 27.9258 19.224 27.9964 20.5878L28 20.5913V20.7266ZM20.2666 21.4605C20.2666 22.06 19.8099 22.5506 19.2324 22.5894L19.2326 22.5932H17.9741L17.1511 22.1248V27H12V20.7266V20.5913L12.0036 20.5878C12.0742 19.224 13.1795 18.1404 14.5327 18.1404C15.2133 18.1404 15.8311 18.4145 16.2862 18.8604L18.379 20.329H19.1585C19.7705 20.329 20.2666 20.8356 20.2666 21.4605ZM14.6119 17.849C15.9233 17.849 16.9863 16.7635 16.9863 15.4245C16.9863 14.0855 15.9233 13 14.6119 13C13.3005 13 12.2374 14.0855 12.2374 15.4245C12.2374 16.7635 13.3005 17.849 14.6119 17.849Z" fill="#616F82"/>
<path d="M28 27V27.2857H28.2857V27H28ZM22.8489 27H22.5632V27.2857H22.8489V27ZM22.8489 22.1248H23.1346V21.6334L22.7076 21.8765L22.8489 22.1248ZM22.0259 22.5932V22.879H22.1015L22.1672 22.8416L22.0259 22.5932ZM20.0234 22.5932L19.9018 22.3347L20.0234 22.879V22.5932ZM20.1766 20.329V20.0433H19.2187L20.0201 20.568L20.1766 20.329ZM21.621 20.329V20.6147H21.7113L21.7852 20.5629L21.621 20.329ZM23.7138 18.8604L23.8779 19.0943L23.8971 19.0809L23.9138 19.0645L23.7138 18.8604ZM27.9964 20.5878L27.7111 20.6026L27.7169 20.7142L27.7969 20.7923L27.9964 20.5878ZM28 20.5913H28.2857V20.4709L28.1996 20.3868L28 20.5913ZM19.2324 22.5894L19.2133 22.3043L18.9378 22.3229L18.9469 22.5988L19.2324 22.5894ZM19.2326 22.5932V22.879H19.5278L19.5181 22.5839L19.2326 22.5932ZM17.9741 22.5932L17.8328 22.8416L17.8985 22.879H17.9741V22.5932ZM17.1511 22.1248L17.2925 21.8765L16.8654 21.6334V22.1248H17.1511ZM17.1511 27V27.2857H17.4368V27H17.1511ZM12 27H11.7143V27.2857H12V27ZM12 20.5913L11.8004 20.3869L11.7143 20.4709V20.5913H12ZM12.0036 20.5878L12.2031 20.7923L12.2831 20.7142L12.2889 20.6026L12.0036 20.5878ZM16.2862 18.8604L16.0862 19.0645L16.1029 19.0809L16.1221 19.0943L16.2862 18.8604ZM18.379 20.329L18.2148 20.5629L18.2887 20.6147H18.379V20.329ZM25.3881 17.5633C24.2401 17.5633 23.2994 16.6114 23.2994 15.4245H22.728C22.728 16.9157 23.9134 18.1347 25.3881 18.1347V17.5633ZM27.4768 15.4245C27.4768 16.6114 26.5361 17.5633 25.3881 17.5633V18.1347C26.8629 18.1347 28.0483 16.9157 28.0483 15.4245H27.4768ZM25.3881 13.2857C26.5361 13.2857 27.4768 14.2376 27.4768 15.4245H28.0483C28.0483 13.9333 26.8629 12.7143 25.3881 12.7143V13.2857ZM23.2994 15.4245C23.2994 14.2376 24.2401 13.2857 25.3881 13.2857V12.7143C23.9134 12.7143 22.728 13.9333 22.728 15.4245H23.2994ZM28.2857 27V20.7266H27.7143V27H28.2857ZM22.8489 27.2857H28V26.7143H22.8489V27.2857ZM22.5632 22.1248V27H23.1346V22.1248H22.5632ZM22.1672 22.8416L22.9902 22.3731L22.7076 21.8765L21.8845 22.3449L22.1672 22.8416ZM20.0234 22.879H22.0259V22.3075H20.0234V22.879ZM20.4746 21.4183C20.4746 21.8271 20.238 22.1765 19.9018 22.3347L20.1451 22.8518C20.6787 22.6006 21.046 22.0517 21.046 21.4183H20.4746ZM20.0201 20.568C20.2924 20.7464 20.4746 21.0595 20.4746 21.4183H21.046C21.046 20.8622 20.7628 20.3714 20.3331 20.09L20.0201 20.568ZM21.621 20.0433H20.1766V20.6147H21.621V20.0433ZM23.5497 18.6265L21.4569 20.0951L21.7852 20.5629L23.8779 19.0943L23.5497 18.6265ZM25.4673 17.8547C24.7082 17.8547 24.0195 18.1608 23.5138 18.6563L23.9138 19.0645C24.3182 18.6682 24.8653 18.4261 25.4673 18.4261V17.8547ZM28.2817 20.573C28.2036 19.0634 26.9785 17.8547 25.4673 17.8547V18.4261C26.6624 18.4261 27.648 19.3846 27.7111 20.6026L28.2817 20.573ZM28.1996 20.3868L28.196 20.3833L27.7969 20.7923L27.8004 20.7958L28.1996 20.3868ZM28.2857 20.7266V20.5913H27.7143V20.7266H28.2857ZM19.2516 22.8745C19.9832 22.8253 20.5523 22.2062 20.5523 21.4605H19.9809C19.9809 21.9137 19.6367 22.2759 19.2133 22.3043L19.2516 22.8745ZM19.5181 22.5839L19.518 22.5801L18.9469 22.5988L18.947 22.6026L19.5181 22.5839ZM17.9741 22.879H19.2326V22.3075H17.9741V22.879ZM17.0098 22.3731L17.8328 22.8416L18.1155 22.3449L17.2925 21.8765L17.0098 22.3731ZM17.4368 27V22.1248H16.8654V27H17.4368ZM12 27.2857H17.1511V26.7143H12V27.2857ZM11.7143 20.7266V27H12.2857V20.7266H11.7143ZM11.7143 20.5913V20.7266H12.2857V20.5913H11.7143ZM11.804 20.3834L11.8004 20.3869L12.1996 20.7958L12.2031 20.7923L11.804 20.3834ZM14.5327 17.8547C13.0215 17.8547 11.7964 19.0634 11.7183 20.573L12.2889 20.6026C12.352 19.3846 13.3375 18.4261 14.5327 18.4261V17.8547ZM16.4862 18.6563C15.9805 18.1608 15.2918 17.8547 14.5327 17.8547V18.4261C15.1347 18.4261 15.6818 18.6682 16.0862 19.0645L16.4862 18.6563ZM18.5431 20.0951L16.4503 18.6265L16.1221 19.0943L18.2148 20.5629L18.5431 20.0951ZM19.1585 20.0433H18.379V20.6147H19.1585V20.0433ZM20.5523 21.4605C20.5523 20.6834 19.9339 20.0433 19.1585 20.0433V20.6147C19.6071 20.6147 19.9809 20.9877 19.9809 21.4605H20.5523ZM16.7006 15.4245C16.7006 16.6114 15.7599 17.5633 14.6119 17.5633V18.1347C16.0866 18.1347 17.272 16.9157 17.272 15.4245H16.7006ZM14.6119 13.2857C15.7599 13.2857 16.7006 14.2376 16.7006 15.4245H17.272C17.272 13.9333 16.0866 12.7143 14.6119 12.7143V13.2857ZM12.5232 15.4245C12.5232 14.2376 13.4639 13.2857 14.6119 13.2857V12.7143C13.1371 12.7143 11.9517 13.9333 11.9517 15.4245H12.5232ZM14.6119 17.5633C13.4639 17.5633 12.5232 16.6114 12.5232 15.4245H11.9517C11.9517 16.9157 13.1371 18.1347 14.6119 18.1347V17.5633Z" fill="#F1F2F3"/>
</svg>
