<svg width="40" height="40" viewBox="0 0 40 40" fill="none" xmlns="http://www.w3.org/2000/svg">
<circle cx="20" cy="20" r="19.6667" stroke="#F1F2F3" stroke-width="0.666667"/>
<path fill-rule="evenodd" clip-rule="evenodd" d="M7 31.9662C7 31.9662 9.44328 30.7196 11.2931 30.0898C13.1428 29.46 14.8754 29.2703 15.3044 28.9365C15.7335 28.6027 16.0394 26.1468 16.0394 25.9283C16.0394 25.7097 15.1976 25.2882 15.0065 24.4263C14.8154 23.5643 14.7344 22.2149 14.5833 21.8764C14.4321 21.5379 13.8889 21.5379 13.7514 21.1582C13.6139 20.7785 13.555 20.3268 13.555 20.0249C13.555 19.723 12.9466 18.8487 12.9466 18.0181C12.9466 17.1875 13.8876 17.6545 13.8876 17.4948C13.8876 17.3351 13.4348 16.7238 13.3282 15.8808C13.2217 15.0378 12.8312 13.0023 13.4412 11.6624C14.0512 10.3224 15.124 10.278 15.3044 10.1561C15.4849 10.0342 15.571 9.66623 16.0394 9.34647C16.5079 9.02671 16.9407 8.83379 17.3669 8.6768C17.7932 8.51981 18.0584 8.50056 18.364 8.42748C18.6695 8.3544 19.1006 8.0649 20 8.01465C20.8994 7.96439 21.1894 8.04062 21.9637 8.28769C22.738 8.53477 22.9936 8.7049 23.438 8.9082C23.8824 9.1115 24.401 9.13255 24.9692 9.55398C25.5373 9.9754 25.9882 10.2657 26.3587 11.7289C26.7292 13.1921 26.7292 14.028 26.5746 15.0378C26.4199 16.0476 25.8579 17.3778 25.8579 17.4948C25.8579 17.6119 26.4072 17.1329 26.5746 17.4948C26.7419 17.8568 26.7419 18.586 26.5746 18.9266C26.4072 19.2672 26.3384 19.5846 26.2689 19.841C26.1994 20.0973 26.1994 20.9728 25.8579 21.292C25.5164 21.6111 25.4116 21.4142 25.2811 21.5666C25.1507 21.7191 25.1507 23.204 24.8584 24.1041C24.5662 25.0042 23.9849 25.4536 23.79 25.8132C23.5952 26.1729 24.061 28.6455 24.4597 29.1084C24.6356 29.3126 26.1316 29.5261 28.5685 30.2945C29.8137 30.6871 33 31.9662 33 31.9662V35C33 35 25.2811 39.8925 19.6105 39.8925C13.94 39.8925 7 35 7 35V31.9662Z" fill="#F1F2F3"/>
</svg>
